<svg width="2048" height="790" viewBox="0 0 2048 790" fill="none" xmlns="http://www.w3.org/2000/svg">
<path d="M32.3285 103.435C15.791 107.623 4.9957 119.387 1.20586 137.404C0 142.97 0 143.028 0 365.953C0 588.879 0 588.936 1.20586 594.33C4.9957 611.717 15.0445 623.25 30.4336 628.07C33.3621 628.931 43.4109 629.046 166.236 629.333L298.881 629.62V659.458C298.881 691.821 298.766 693.198 295.665 700.944C291.071 712.535 282.056 721.716 270.457 726.651C262.418 730.094 260.179 730.324 231.008 730.324C209.073 730.324 204.077 730.496 201.264 731.242C189.148 734.34 182.429 745.644 184.841 758.555C186.277 766.015 189.377 773.819 193.282 779.786C196.325 784.319 199.024 786.787 202.929 788.623L205.857 790H367.328C527.075 790 528.798 790 531.439 788.852C535.287 787.188 537.813 785.065 540.627 781.163C545.221 774.679 548.379 767.162 549.872 759.129C550.963 753.276 550.676 749.145 548.896 744.325C547.116 739.677 541.431 733.939 536.607 731.988C533.162 730.611 533.047 730.611 503.59 730.266C470.343 729.922 471.319 730.037 461.959 725.446C450.762 719.938 442.55 710.642 438.416 698.879C436.004 691.936 435.775 688.665 435.947 658.31L436.119 629.62L568.764 629.333L701.408 629.046L705.428 627.726C711.457 625.718 716.28 622.791 720.989 618.316C727.822 611.832 731.497 604.946 733.794 594.33C735 588.936 735 588.879 735 365.953C735 148.594 735 142.798 733.909 137.806C732.703 132.125 730.464 125.871 728.569 122.715C722.539 112.673 713.754 106.246 702.327 103.377L696.814 102L367.213 102.057L37.6113 102.115L32.3285 103.435ZM688.948 148.02C689.924 148.995 689.924 582.911 688.948 583.887C687.971 584.862 47.0285 584.862 46.0523 583.887C45.5355 583.37 45.3633 534.08 45.3633 365.666C45.3633 245.969 45.5355 147.905 45.7652 147.733C45.9375 147.503 190.583 147.331 367.213 147.331C616.137 147.331 688.431 147.503 688.948 148.02Z" fill="black"/>
<path d="M1000.36 324.596H905.393V286.266H1000.36C1018.76 286.266 1033.65 283.336 1045.04 277.477C1056.43 271.617 1064.74 263.479 1069.94 253.062C1075.31 242.646 1078 230.764 1078 217.418C1078 205.211 1075.31 193.736 1069.94 182.994C1064.74 172.252 1056.43 163.626 1045.04 157.115C1033.65 150.442 1018.76 147.105 1000.36 147.105H916.379V464H869.26V108.531H1000.36C1027.22 108.531 1049.92 113.17 1068.48 122.447C1087.03 131.725 1101.11 144.583 1110.71 161.021C1120.32 177.298 1125.12 195.934 1125.12 216.93C1125.12 239.716 1120.32 259.166 1110.71 275.279C1101.11 291.393 1087.03 303.681 1068.48 312.145C1049.92 320.445 1027.22 324.596 1000.36 324.596ZM1223.02 241.344V464H1177.85V199.84H1221.8L1223.02 241.344ZM1305.54 198.375L1305.29 240.367C1301.55 239.553 1297.97 239.065 1294.55 238.902C1291.3 238.577 1287.55 238.414 1283.32 238.414C1272.91 238.414 1263.71 240.042 1255.73 243.297C1247.76 246.552 1241 251.109 1235.47 256.969C1229.94 262.828 1225.54 269.827 1222.29 277.965C1219.19 285.94 1217.16 294.729 1216.18 304.332L1203.49 311.656C1203.49 295.706 1205.03 280.732 1208.13 266.734C1211.38 252.737 1216.35 240.367 1223.02 229.625C1229.69 218.72 1238.16 210.257 1248.41 204.234C1258.83 198.049 1271.2 194.957 1285.52 194.957C1288.77 194.957 1292.52 195.364 1296.75 196.178C1300.98 196.829 1303.91 197.561 1305.54 198.375ZM1470.09 199.84V234.508H1327.27V199.84H1470.09ZM1375.61 135.631H1420.77V398.57C1420.77 407.522 1422.16 414.277 1424.92 418.834C1427.69 423.391 1431.27 426.402 1435.67 427.867C1440.06 429.332 1444.78 430.064 1449.83 430.064C1453.57 430.064 1457.48 429.739 1461.54 429.088C1465.78 428.274 1468.95 427.623 1471.07 427.135L1471.31 464C1467.73 465.139 1463.01 466.197 1457.15 467.174C1451.45 468.313 1444.54 468.883 1436.4 468.883C1425.33 468.883 1415.16 466.686 1405.88 462.291C1396.6 457.896 1389.2 450.572 1383.66 440.318C1378.29 429.902 1375.61 415.904 1375.61 398.326V135.631ZM1719.36 374.156C1719.36 365.855 1718.06 358.531 1715.45 352.184C1713.01 345.673 1708.62 339.814 1702.27 334.605C1696.08 329.397 1687.46 324.433 1676.39 319.713C1665.48 314.993 1651.65 310.191 1634.88 305.309C1617.31 300.1 1601.44 294.322 1587.28 287.975C1573.12 281.464 1560.99 274.059 1550.9 265.758C1540.81 257.457 1533.08 247.936 1527.71 237.193C1522.34 226.451 1519.65 214.163 1519.65 200.328C1519.65 186.493 1522.5 173.717 1528.2 161.998C1533.89 150.279 1542.03 140.107 1552.61 131.48C1563.35 122.691 1576.13 115.855 1590.94 110.973C1605.75 106.09 1622.27 103.648 1640.5 103.648C1667.19 103.648 1689.82 108.775 1708.37 119.029C1727.09 129.12 1741.33 142.385 1751.1 158.824C1760.86 175.1 1765.74 192.516 1765.74 211.07H1718.87C1718.87 197.724 1716.02 185.924 1710.32 175.67C1704.63 165.253 1696 157.115 1684.45 151.256C1672.89 145.234 1658.24 142.223 1640.5 142.223C1623.74 142.223 1609.9 144.745 1599 149.791C1588.09 154.837 1579.95 161.673 1574.58 170.299C1569.37 178.925 1566.77 188.772 1566.77 199.84C1566.77 207.327 1568.32 214.163 1571.41 220.348C1574.66 226.37 1579.63 231.985 1586.3 237.193C1593.14 242.402 1601.76 247.203 1612.18 251.598C1622.76 255.992 1635.37 260.224 1650.02 264.293C1670.2 269.99 1687.62 276.337 1702.27 283.336C1716.92 290.335 1728.96 298.229 1738.4 307.018C1748 315.644 1755.08 325.491 1759.64 336.559C1764.36 347.464 1766.72 359.833 1766.72 373.668C1766.72 388.154 1763.79 401.256 1757.93 412.975C1752.07 424.693 1743.69 434.703 1732.79 443.004C1721.88 451.305 1708.78 457.734 1693.48 462.291C1678.34 466.686 1661.41 468.883 1642.7 468.883C1626.26 468.883 1610.06 466.604 1594.11 462.047C1578.33 457.49 1563.92 450.654 1550.9 441.539C1538.04 432.424 1527.71 421.194 1519.89 407.848C1512.24 394.339 1508.42 378.714 1508.42 360.973H1555.29C1555.29 373.18 1557.65 383.678 1562.38 392.467C1567.1 401.093 1573.52 408.255 1581.66 413.951C1589.96 419.648 1599.32 423.88 1609.74 426.646C1620.32 429.251 1631.3 430.553 1642.7 430.553C1659.14 430.553 1673.05 428.274 1684.45 423.717C1695.84 419.16 1704.46 412.649 1710.32 404.186C1716.35 395.722 1719.36 385.712 1719.36 374.156ZM1925.66 431.773C1936.4 431.773 1946.33 429.576 1955.44 425.182C1964.56 420.787 1972.04 414.765 1977.9 407.115C1983.76 399.303 1987.1 390.432 1987.91 380.504H2030.88C2030.07 396.129 2024.78 410.696 2015.01 424.205C2005.41 437.551 1992.79 448.375 1977.17 456.676C1961.54 464.814 1944.37 468.883 1925.66 468.883C1905.8 468.883 1888.47 465.383 1873.65 458.385C1859.01 451.386 1846.8 441.783 1837.03 429.576C1827.43 417.369 1820.19 403.372 1815.3 387.584C1810.58 371.633 1808.22 354.788 1808.22 337.047V326.793C1808.22 309.052 1810.58 292.288 1815.3 276.5C1820.19 260.549 1827.43 246.471 1837.03 234.264C1846.8 222.057 1859.01 212.454 1873.65 205.455C1888.47 198.456 1905.8 194.957 1925.66 194.957C1946.33 194.957 1964.39 199.189 1979.86 207.652C1995.32 215.953 2007.44 227.346 2016.23 241.832C2025.18 256.155 2030.07 272.431 2030.88 290.66H1987.91C1987.1 279.755 1984.01 269.908 1978.63 261.119C1973.43 252.33 1966.26 245.331 1957.15 240.123C1948.2 234.752 1937.7 232.066 1925.66 232.066C1911.82 232.066 1900.18 234.833 1890.74 240.367C1881.47 245.738 1874.06 253.062 1868.53 262.34C1863.16 271.454 1859.25 281.627 1856.81 292.857C1854.53 303.925 1853.39 315.237 1853.39 326.793V337.047C1853.39 348.603 1854.53 359.996 1856.81 371.227C1859.09 382.457 1862.91 392.63 1868.28 401.744C1873.82 410.859 1881.22 418.183 1890.5 423.717C1899.94 429.088 1911.66 431.773 1925.66 431.773Z" fill="black"/>
<path d="M1194.41 531.844H1218.03V680.766C1218.03 694.172 1215.31 705.609 1209.88 715.078C1204.44 724.547 1196.84 731.719 1187.09 736.594C1177.44 741.562 1166.28 744.047 1153.62 744.047C1148.38 744.047 1142.19 743.203 1135.06 741.516C1128.03 739.922 1121.09 737.156 1114.25 733.219C1107.5 729.375 1101.83 724.172 1097.23 717.609L1110.88 702.141C1117.25 709.828 1123.91 715.172 1130.84 718.172C1137.88 721.172 1144.81 722.672 1151.66 722.672C1159.91 722.672 1167.03 721.125 1173.03 718.031C1179.03 714.938 1183.67 710.344 1186.95 704.25C1190.33 698.25 1192.02 690.844 1192.02 682.031V565.312L1194.41 531.844ZM1089.64 609.609V606.656C1089.64 595.031 1091 584.484 1093.72 575.016C1096.53 565.453 1100.52 557.25 1105.67 550.406C1110.92 543.562 1117.25 538.312 1124.66 534.656C1132.06 530.906 1140.41 529.031 1149.69 529.031C1159.25 529.031 1167.59 530.719 1174.72 534.094C1181.94 537.375 1188.03 542.203 1193 548.578C1198.06 554.859 1202.05 562.453 1204.95 571.359C1207.86 580.266 1209.88 590.344 1211 601.594V614.531C1209.97 625.688 1207.95 635.719 1204.95 644.625C1202.05 653.531 1198.06 661.125 1193 667.406C1188.03 673.688 1181.94 678.516 1174.72 681.891C1167.5 685.172 1159.06 686.812 1149.41 686.812C1140.31 686.812 1132.06 684.891 1124.66 681.047C1117.34 677.203 1111.06 671.812 1105.81 664.875C1100.56 657.938 1096.53 649.781 1093.72 640.406C1091 630.938 1089.64 620.672 1089.64 609.609ZM1115.66 606.656V609.609C1115.66 617.203 1116.41 624.328 1117.91 630.984C1119.5 637.641 1121.89 643.5 1125.08 648.562C1128.36 653.625 1132.53 657.609 1137.59 660.516C1142.66 663.328 1148.7 664.734 1155.73 664.734C1164.36 664.734 1171.48 662.906 1177.11 659.25C1182.73 655.594 1187.19 650.766 1190.47 644.766C1193.84 638.766 1196.47 632.25 1198.34 625.219V591.328C1197.31 586.172 1195.72 581.203 1193.56 576.422C1191.5 571.547 1188.78 567.234 1185.41 563.484C1182.12 559.641 1178.05 556.594 1173.17 554.344C1168.3 552.094 1162.58 550.969 1156.02 550.969C1148.89 550.969 1142.75 552.469 1137.59 555.469C1132.53 558.375 1128.36 562.406 1125.08 567.562C1121.89 572.625 1119.5 578.531 1117.91 585.281C1116.41 591.938 1115.66 599.062 1115.66 606.656ZM1347.27 657.984V579.656C1347.27 573.656 1346.05 568.453 1343.61 564.047C1341.27 559.547 1337.7 556.078 1332.92 553.641C1328.14 551.203 1322.23 549.984 1315.2 549.984C1308.64 549.984 1302.88 551.109 1297.91 553.359C1293.03 555.609 1289.19 558.562 1286.38 562.219C1283.66 565.875 1282.3 569.812 1282.3 574.031H1256.28C1256.28 568.594 1257.69 563.203 1260.5 557.859C1263.31 552.516 1267.34 547.688 1272.59 543.375C1277.94 538.969 1284.31 535.5 1291.72 532.969C1299.22 530.344 1307.56 529.031 1316.75 529.031C1327.81 529.031 1337.56 530.906 1346 534.656C1354.53 538.406 1361.19 544.078 1365.97 551.672C1370.84 559.172 1373.28 568.594 1373.28 579.938V650.812C1373.28 655.875 1373.7 661.266 1374.55 666.984C1375.48 672.703 1376.84 677.625 1378.62 681.75V684H1351.48C1350.17 681 1349.14 677.016 1348.39 672.047C1347.64 666.984 1347.27 662.297 1347.27 657.984ZM1351.77 591.75L1352.05 610.031H1325.75C1318.34 610.031 1311.73 610.641 1305.92 611.859C1300.11 612.984 1295.23 614.719 1291.3 617.062C1287.36 619.406 1284.36 622.359 1282.3 625.922C1280.23 629.391 1279.2 633.469 1279.2 638.156C1279.2 642.938 1280.28 647.297 1282.44 651.234C1284.59 655.172 1287.83 658.312 1292.14 660.656C1296.55 662.906 1301.94 664.031 1308.31 664.031C1316.28 664.031 1323.31 662.344 1329.41 658.969C1335.5 655.594 1340.33 651.469 1343.89 646.594C1347.55 641.719 1349.52 636.984 1349.8 632.391L1360.91 644.906C1360.25 648.844 1358.47 653.203 1355.56 657.984C1352.66 662.766 1348.77 667.359 1343.89 671.766C1339.11 676.078 1333.39 679.688 1326.73 682.594C1320.17 685.406 1312.77 686.812 1304.52 686.812C1294.2 686.812 1285.16 684.797 1277.38 680.766C1269.69 676.734 1263.69 671.344 1259.38 664.594C1255.16 657.75 1253.05 650.109 1253.05 641.672C1253.05 633.516 1254.64 626.344 1257.83 620.156C1261.02 613.875 1265.61 608.672 1271.61 604.547C1277.61 600.328 1284.83 597.141 1293.27 594.984C1301.7 592.828 1311.12 591.75 1321.53 591.75H1351.77ZM1440.08 562.078V684H1413.92V531.844H1438.67L1440.08 562.078ZM1434.73 602.156L1422.64 601.734C1422.73 591.328 1424.09 581.719 1426.72 572.906C1429.34 564 1433.23 556.266 1438.39 549.703C1443.55 543.141 1449.97 538.078 1457.66 534.516C1465.34 530.859 1474.25 529.031 1484.38 529.031C1491.5 529.031 1498.06 530.062 1504.06 532.125C1510.06 534.094 1515.27 537.234 1519.67 541.547C1524.08 545.859 1527.5 551.391 1529.94 558.141C1532.38 564.891 1533.59 573.047 1533.59 582.609V684H1507.58V583.875C1507.58 575.906 1506.22 569.531 1503.5 564.75C1500.88 559.969 1497.12 556.5 1492.25 554.344C1487.38 552.094 1481.66 550.969 1475.09 550.969C1467.41 550.969 1460.98 552.328 1455.83 555.047C1450.67 557.766 1446.55 561.516 1443.45 566.297C1440.36 571.078 1438.11 576.562 1436.7 582.75C1435.39 588.844 1434.73 595.312 1434.73 602.156ZM1533.31 587.812L1515.88 593.156C1515.97 584.812 1517.33 576.797 1519.95 569.109C1522.67 561.422 1526.56 554.578 1531.62 548.578C1536.78 542.578 1543.11 537.844 1550.61 534.375C1558.11 530.812 1566.69 529.031 1576.34 529.031C1584.5 529.031 1591.72 530.109 1598 532.266C1604.38 534.422 1609.72 537.75 1614.03 542.25C1618.44 546.656 1621.77 552.328 1624.02 559.266C1626.27 566.203 1627.39 574.453 1627.39 584.016V684H1601.23V583.734C1601.23 575.203 1599.88 568.594 1597.16 563.906C1594.53 559.125 1590.78 555.797 1585.91 553.922C1581.12 551.953 1575.41 550.969 1568.75 550.969C1563.03 550.969 1557.97 551.953 1553.56 553.922C1549.16 555.891 1545.45 558.609 1542.45 562.078C1539.45 565.453 1537.16 569.344 1535.56 573.75C1534.06 578.156 1533.31 582.844 1533.31 587.812ZM1729.91 686.812C1719.31 686.812 1709.7 685.031 1701.08 681.469C1692.55 677.812 1685.19 672.703 1679 666.141C1672.91 659.578 1668.22 651.797 1664.94 642.797C1661.66 633.797 1660.02 623.953 1660.02 613.266V607.359C1660.02 594.984 1661.84 583.969 1665.5 574.312C1669.16 564.562 1674.12 556.312 1680.41 549.562C1686.69 542.812 1693.81 537.703 1701.78 534.234C1709.75 530.766 1718 529.031 1726.53 529.031C1737.41 529.031 1746.78 530.906 1754.66 534.656C1762.62 538.406 1769.14 543.656 1774.2 550.406C1779.27 557.062 1783.02 564.938 1785.45 574.031C1787.89 583.031 1789.11 592.875 1789.11 603.562V615.234H1675.48V594H1763.09V592.031C1762.72 585.281 1761.31 578.719 1758.88 572.344C1756.53 565.969 1752.78 560.719 1747.62 556.594C1742.47 552.469 1735.44 550.406 1726.53 550.406C1720.62 550.406 1715.19 551.672 1710.22 554.203C1705.25 556.641 1700.98 560.297 1697.42 565.172C1693.86 570.047 1691.09 576 1689.12 583.031C1687.16 590.062 1686.17 598.172 1686.17 607.359V613.266C1686.17 620.484 1687.16 627.281 1689.12 633.656C1691.19 639.938 1694.14 645.469 1697.98 650.25C1701.92 655.031 1706.66 658.781 1712.19 661.5C1717.81 664.219 1724.19 665.578 1731.31 665.578C1740.5 665.578 1748.28 663.703 1754.66 659.953C1761.03 656.203 1766.61 651.188 1771.39 644.906L1787.14 657.422C1783.86 662.391 1779.69 667.125 1774.62 671.625C1769.56 676.125 1763.33 679.781 1755.92 682.594C1748.61 685.406 1739.94 686.812 1729.91 686.812Z" fill="black"/>
<line x1="796.5" y1="102" x2="796.5" y2="790" stroke="black" stroke-width="5"/>
</svg>
