<svg width="700" height="1246" viewBox="0 0 700 1246" fill="none" xmlns="http://www.w3.org/2000/svg">
<circle cx="350" cy="350" r="350" fill="black"/>
<circle cx="350" cy="350" r="275" fill="white"/>
<path d="M46 942.5C46 862.007 77.9758 784.81 134.893 727.893C191.81 670.976 269.007 639 349.5 639C429.993 639 507.19 670.976 564.107 727.893C621.024 784.81 653 862.007 653 942.5L349.5 942.5H46Z" fill="black"/>
<path d="M150 943C150 916.736 155.173 890.728 165.224 866.463C175.275 842.198 190.007 820.15 208.579 801.579C227.15 783.007 249.198 768.275 273.463 758.224C297.728 748.173 323.736 743 350 743C376.264 743 402.272 748.173 426.537 758.224C450.802 768.275 472.85 783.007 491.421 801.579C509.993 820.15 524.725 842.198 534.776 866.463C544.827 890.728 550 916.736 550 943L350 943H150Z" fill="white"/>
</svg>
